# xmcd
#
# Track frame offsets:
#	150
#	21173
#	38397
#	58033
#	77916
#	101329
#	117744
#	137637
#	155876
#	168396
#	187320
#	200298
#	212672
#	231083
#	254605
#	279928
#	313801
#
# Disc length: 4365 seconds
#
# Revision: 0
# Processed by: cddbd v1.5.1PL0 Copyright (c) Steve Scherf et al.
# Submitted via: dBpowerAMP V4.0
#
DISCID=f6110b11
DTITLE=James Dee - Lose Your Heart
DYEAR=1900
DGENRE=Country
TTITLE0=Summer Wine
TTITLE1=Eighteen Wheels
TTITLE2=I'm Easy
TTITLE3=All my Ex's Live In Texas
TTITLE4=Slip Away
TTITLE5=This Cowboy
TTITLE6=Daddy's Little Girl
TTITLE7=Crazy
TTITLE8=Moon River
TTITLE9=High Noon
TTITLE10=Lose Your Heart
TTITLE11=Oh Susanna
TTITLE12=It May Sound sad, But It's True
TTITLE13=The Gambler
TTITLE14=Frieds In Low Places
TTITLE15=Ghostriders In The Sky
TTITLE16=Two In The Morning
EXTD=
EXTT0=
EXTT1=
EXTT2=
EXTT3=
EXTT4=
EXTT5=
EXTT6=
EXTT7=
EXTT8=
EXTT9=
EXTT10=
EXTT11=
EXTT12=
EXTT13=
EXTT14=
EXTT15=
EXTT16=
PLAYORDER=
